Dummy-ExtraPlus.ufo
<glyph name="a" format="2">
	<unicode hex="0061"/>
	<advance width="561"/>
	<outline>
		<contour>
			<point x="183" y="-12" type="curve" smooth="yes"/>
			<point x="232" y="-12"/>
			<point x="268" y="6"/>
			<point x="303" y="40" type="curve"/>
			<point x="308" y="40" type="line"/>
			<point x="324" y="0" type="line"/>
			<point x="521" y="0" type="line"/>
			<point x="521" y="262" type="line" smooth="yes"/>
			<point x="521" y="460"/>
			<point x="421" y="523"/>
			<point x="282" y="523" type="curve" smooth="yes"/>
			<point x="204" y="523"/>
			<point x="129" y="507"/>
			<point x="39" y="455" type="curve"/>
			<point x="121" y="299" type="line"/>
			<point x="184" y="329"/>
			<point x="212" y="333"/>
			<point x="232" y="333" type="curve" smooth="yes"/>
			<point x="248" y="333"/>
			<point x="271" y="352"/>
			<point x="278" y="337" type="curve"/>
			<point x="98" y="319"/>
			<point x="27" y="257"/>
			<point x="27" y="154" type="curve" smooth="yes"/>
			<point x="27" y="77"/>
			<point x="79" y="-12"/>
		</contour>
		<contour>
			<point x="272" y="172" type="curve" smooth="yes"/>
			<point x="256" y="172"/>
			<point x="257" y="178"/>
			<point x="257" y="175" type="curve" smooth="yes"/>
			<point x="257" y="176"/>
			<point x="260" y="191"/>
			<point x="278" y="197" type="curve"/>
			<point x="278" y="182" type="line"/>
			<point x="283" y="179"/>
			<point x="285" y="172"/>
		</contour>
	</outline>
	<anchor name="aboveLC" x="298" y="532"/>
	<anchor name="belowLC" x="281" y="-22"/>
	<anchor name="ogonekLC" x="443" y="0"/>
</glyph>
<glyph name="b" format="2">
	<unicode hex="0062"/>
	<advance width="601"/>
	<outline>
		<contour>
			<point x="367" y="-12" type="curve" smooth="yes"/>
			<point x="469" y="-12"/>
			<point x="573" y="87"/>
			<point x="573" y="266" type="curve" smooth="yes"/>
			<point x="573" y="421"/>
			<point x="488" y="523"/>
			<point x="376" y="523" type="curve" smooth="yes"/>
			<point x="340" y="523"/>
			<point x="304" y="514"/>
			<point x="277" y="487" type="curve"/>
			<point x="282" y="547" type="line"/>
			<point x="282" y="683" type="line"/>
			<point x="39" y="683" type="line"/>
			<point x="39" y="0" type="line"/>
			<point x="227" y="0" type="line"/>
			<point x="246" y="57" type="line"/>
			<point x="251" y="57" type="line"/>
			<point x="285" y="9"/>
			<point x="324" y="-12"/>
		</contour>
		<contour>
			<point x="303" y="184" type="curve" smooth="yes"/>
			<point x="289" y="184"/>
			<point x="284" y="184"/>
			<point x="282" y="187" type="curve"/>
			<point x="282" y="315" type="line"/>
			<point x="285" y="327"/>
			<point x="287" y="327"/>
			<point x="301" y="327" type="curve" smooth="yes"/>
			<point x="311" y="327"/>
			<point x="325" y="323"/>
			<point x="325" y="261" type="curve" smooth="yes"/>
			<point x="325" y="184"/>
			<point x="311" y="184"/>
		</contour>
	</outline>
	<anchor name="aboveLC" x="162" y="730"/>
	<anchor name="belowLC" x="308" y="-22"/>
</glyph>
<glyph name="c" format="2">
	<unicode hex="0063"/>
	<advance width="485"/>
	<outline>
		<contour>
			<point x="292" y="-12" type="curve" smooth="yes"/>
			<point x="339" y="-12"/>
			<point x="410" y="-5"/>
			<point x="465" y="43" type="curve"/>
			<point x="375" y="200" type="line"/>
			<point x="356" y="189"/>
			<point x="337" y="181"/>
			<point x="322" y="181" type="curve" smooth="yes"/>
			<point x="296" y="181"/>
			<point x="269" y="208"/>
			<point x="269" y="256" type="curve" smooth="yes"/>
			<point x="269" y="304"/>
			<point x="286" y="330"/>
			<point x="331" y="330" type="curve" smooth="yes"/>
			<point x="333" y="330"/>
			<point x="338" y="333"/>
			<point x="355" y="321" type="curve"/>
			<point x="465" y="475" type="line"/>
			<point x="424" y="508"/>
			<point x="373" y="523"/>
			<point x="316" y="523" type="curve" smooth="yes"/>
			<point x="160" y="523"/>
			<point x="21" y="425"/>
			<point x="21" y="256" type="curve" smooth="yes"/>
			<point x="21" y="86"/>
			<point x="140" y="-12"/>
		</contour>
	</outline>
	<anchor name="aboveLC" x="286" y="532"/>
	<anchor name="belowLC" x="281" y="-22"/>
	<anchor name="baseLC" x="281" y="0"/>
</glyph>
<glyph name="d" format="2">
	<unicode hex="0064"/>
	<advance width="600"/>
	<outline>
		<contour>
			<point x="234" y="-12" type="curve" smooth="yes"/>
			<point x="267" y="-12"/>
			<point x="312" y="6"/>
			<point x="343" y="37" type="curve"/>
			<point x="348" y="37" type="line"/>
			<point x="364" y="0" type="line"/>
			<point x="561" y="0" type="line"/>
			<point x="561" y="683" type="line"/>
			<point x="318" y="683" type="line"/>
			<point x="318" y="541" type="line"/>
			<point x="326" y="478" type="line"/>
			<point x="306" y="504"/>
			<point x="278" y="523"/>
			<point x="226" y="523" type="curve" smooth="yes"/>
			<point x="131" y="523"/>
			<point x="27" y="425"/>
			<point x="27" y="256" type="curve" smooth="yes"/>
			<point x="27" y="94"/>
			<point x="108" y="-12"/>
		</contour>
		<contour>
			<point x="302" y="184" type="curve" smooth="yes"/>
			<point x="287" y="184"/>
			<point x="275" y="190"/>
			<point x="275" y="259" type="curve" smooth="yes"/>
			<point x="275" y="329"/>
			<point x="287" y="327"/>
			<point x="290" y="327" type="curve" smooth="yes"/>
			<point x="298" y="327"/>
			<point x="315" y="327"/>
			<point x="318" y="324" type="curve"/>
			<point x="318" y="196" type="line"/>
			<point x="318" y="181"/>
			<point x="313" y="184"/>
		</contour>
	</outline>
	<anchor name="aboveLC" x="431" y="730"/>
	<anchor name="belowLC" x="328" y="-22"/>
</glyph>
<glyph name="e" format="2">
	<unicode hex="0065"/>
	<advance width="550"/>
	<outline>
		<contour>
			<point x="299" y="-12" type="curve" smooth="yes"/>
			<point x="347" y="-12"/>
			<point x="435" y="6"/>
			<point x="498" y="52" type="curve"/>
			<point x="421" y="192" type="line"/>
			<point x="385" y="175"/>
			<point x="358" y="169"/>
			<point x="334" y="169" type="curve" smooth="yes"/>
			<point x="307" y="169"/>
			<point x="278" y="152"/>
			<point x="254" y="178" type="curve"/>
			<point x="506" y="178" type="line"/>
			<point x="509" y="190"/>
			<point x="515" y="230"/>
			<point x="515" y="270" type="curve" smooth="yes"/>
			<point x="515" y="400"/>
			<point x="445" y="523"/>
			<point x="278" y="523" type="curve" smooth="yes"/>
			<point x="148" y="523"/>
			<point x="21" y="421"/>
			<point x="21" y="256" type="curve" smooth="yes"/>
			<point x="21" y="85"/>
			<point x="140" y="-12"/>
		</contour>
		<contour>
			<point x="251" y="332" type="line"/>
			<point x="261" y="346"/>
			<point x="270" y="342"/>
			<point x="284" y="342" type="curve" smooth="yes"/>
			<point x="317" y="342"/>
			<point x="311" y="323"/>
			<point x="311" y="332" type="curve"/>
		</contour>
	</outline>
	<anchor name="aboveLC" x="278" y="532"/>
	<anchor name="belowLC" x="280" y="-22"/>
	<anchor name="ogonekLC" x="409" y="0"/>
</glyph>
<glyph name="f" format="2">
	<unicode hex="0066"/>
	<advance width="414"/>
	<outline>
		<contour>
			<point x="82" y="0" type="line"/>
			<point x="325" y="0" type="line"/>
			<point x="325" y="472" type="line" smooth="yes"/>
			<point x="325" y="506"/>
			<point x="343" y="508"/>
			<point x="364" y="508" type="curve" smooth="yes"/>
			<point x="379" y="508"/>
			<point x="396" y="504"/>
			<point x="410" y="500" type="curve"/>
			<point x="450" y="676" type="line"/>
			<point x="428" y="683"/>
			<point x="383" y="695"/>
			<point x="324" y="695" type="curve" smooth="yes"/>
			<point x="136" y="695"/>
			<point x="82" y="574"/>
			<point x="82" y="461" type="curve" smooth="yes"/>
		</contour>
		<contour>
			<point x="16" y="324" type="line"/>
			<point x="394" y="324" type="line"/>
			<point x="394" y="511" type="line"/>
			<point x="97" y="511" type="line"/>
			<point x="16" y="504" type="line"/>
		</contour>
	</outline>
	<anchor name="aboveLC" x="239" y="742"/>
	<anchor name="belowLC" x="203" y="-22"/>
</glyph>
<glyph name="g" format="2">
	<unicode hex="0067"/>
	<advance width="579"/>
	<outline>
		<contour>
			<point x="235" y="-192" type="curve" smooth="yes"/>
			<point x="435" y="-192"/>
			<point x="560" y="-121"/>
			<point x="560" y="1" type="curve" smooth="yes"/>
			<point x="560" y="102"/>
			<point x="476" y="142"/>
			<point x="342" y="142" type="curve" smooth="yes"/>
			<point x="282" y="142" type="line" smooth="yes"/>
			<point x="244" y="142"/>
			<point x="224" y="139"/>
			<point x="224" y="154" type="curve" smooth="yes"/>
			<point x="224" y="158"/>
			<point x="217" y="156"/>
			<point x="221" y="160" type="curve"/>
			<point x="243" y="160"/>
			<point x="254" y="161"/>
			<point x="264" y="161" type="curve" smooth="yes"/>
			<point x="386" y="161"/>
			<point x="485" y="196"/>
			<point x="485" y="325" type="curve" smooth="yes"/>
			<point x="485" y="328"/>
			<point x="491" y="335"/>
			<point x="502" y="339" type="curve"/>
			<point x="552" y="339" type="line"/>
			<point x="552" y="511" type="line"/>
			<point x="353" y="511" type="line"/>
			<point x="324" y="520"/>
			<point x="293" y="523"/>
			<point x="264" y="523" type="curve" smooth="yes"/>
			<point x="145" y="523"/>
			<point x="25" y="472"/>
			<point x="25" y="334" type="curve" smooth="yes"/>
			<point x="25" y="276"/>
			<point x="58" y="231"/>
			<point x="97" y="208" type="curve"/>
			<point x="97" y="204" type="line"/>
			<point x="56" y="175"/>
			<point x="39" y="136"/>
			<point x="39" y="107" type="curve" smooth="yes"/>
			<point x="39" y="62"/>
			<point x="60" y="36"/>
			<point x="87" y="16" type="curve"/>
			<point x="87" y="12" type="line"/>
			<point x="40" y="-8"/>
			<point x="18" y="-32"/>
			<point x="18" y="-73" type="curve" smooth="yes"/>
			<point x="18" y="-168"/>
			<point x="125" y="-192"/>
		</contour>
		<contour>
			<point x="264" y="300" type="curve" smooth="yes"/>
			<point x="251" y="300"/>
			<point x="249" y="304"/>
			<point x="249" y="334" type="curve" smooth="yes"/>
			<point x="249" y="360"/>
			<point x="252" y="366"/>
			<point x="264" y="366" type="curve" smooth="yes"/>
			<point x="276" y="366"/>
			<point x="279" y="360"/>
			<point x="279" y="334" type="curve" smooth="yes"/>
			<point x="279" y="304"/>
			<point x="277" y="300"/>
		</contour>
		<contour>
			<point x="276" y="-47" type="curve" smooth="yes"/>
			<point x="242" y="-47"/>
			<point x="212" y="-48"/>
			<point x="212" y="-32" type="curve" smooth="yes"/>
			<point x="212" y="-29"/>
			<point x="211" y="-34"/>
			<point x="205" y="-32" type="curve"/>
			<point x="213" y="-35"/>
			<point x="227" y="-37"/>
			<point x="284" y="-37" type="curve" smooth="yes"/>
			<point x="288" y="-37" type="line" smooth="yes"/>
			<point x="314" y="-37"/>
			<point x="330" y="-32"/>
			<point x="330" y="-43" type="curve" smooth="yes"/>
			<point x="330" y="-53"/>
			<point x="303" y="-47"/>
		</contour>
	</outline>
	<anchor name="aboveLC" x="290" y="532"/>
	<anchor name="belowLC" x="248" y="-228"/>
</glyph>
<glyph name="h" format="2">
	<unicode hex="0068"/>
	<advance width="612"/>
	<outline>
		<contour>
			<point x="39" y="0" type="line"/>
			<point x="282" y="0" type="line"/>
			<point x="282" y="309" type="line"/>
			<point x="290" y="313"/>
			<point x="295" y="318"/>
			<point x="313" y="318" type="curve" smooth="yes"/>
			<point x="323" y="318"/>
			<point x="330" y="320"/>
			<point x="330" y="277" type="curve" smooth="yes"/>
			<point x="330" y="0" type="line"/>
			<point x="573" y="0" type="line"/>
			<point x="573" y="308" type="line" smooth="yes"/>
			<point x="573" y="432"/>
			<point x="527" y="523"/>
			<point x="411" y="523" type="curve" smooth="yes"/>
			<point x="342" y="523"/>
			<point x="295" y="491"/>
			<point x="270" y="472" type="curve"/>
			<point x="282" y="547" type="line"/>
			<point x="282" y="683" type="line"/>
			<point x="39" y="683" type="line"/>
		</contour>
	</outline>
	<anchor name="aboveLC" x="157" y="730"/>
	<anchor name="belowLC" x="304" y="-22"/>
</glyph>
<glyph name="i" format="2">
	<unicode hex="0069"/>
	<advance width="321"/>
	<outline>
		<contour>
			<point x="39" y="0" type="line"/>
			<point x="282" y="0" type="line"/>
			<point x="282" y="511" type="line"/>
			<point x="39" y="511" type="line"/>
		</contour>
		<contour>
			<point x="160" y="543" type="curve" smooth="yes"/>
			<point x="235" y="543"/>
			<point x="287" y="590"/>
			<point x="287" y="655" type="curve" smooth="yes"/>
			<point x="287" y="719"/>
			<point x="235" y="767"/>
			<point x="160" y="767" type="curve" smooth="yes"/>
			<point x="85" y="767"/>
			<point x="33" y="719"/>
			<point x="33" y="655" type="curve" smooth="yes"/>
			<point x="33" y="590"/>
			<point x="85" y="543"/>
		</contour>
	</outline>
	<anchor name="aboveLC" x="161" y="764"/>
	<anchor name="belowLC" x="161" y="-22"/>
	<anchor name="ogonekLC" x="220" y="0"/>
</glyph>
<glyph name="j" format="2">
	<unicode hex="006A"/>
	<advance width="324"/>
	<outline>
		<contour>
			<point x="43" y="-165" type="curve" smooth="yes"/>
			<point x="235" y="-165"/>
			<point x="285" y="-32"/>
			<point x="285" y="90" type="curve" smooth="yes"/>
			<point x="285" y="511" type="line"/>
			<point x="42" y="511" type="line"/>
			<point x="42" y="79" type="line" smooth="yes"/>
			<point x="42" y="29"/>
			<point x="26" y="22"/>
			<point x="0" y="22" type="curve" smooth="yes"/>
			<point x="-8" y="22"/>
			<point x="-13" y="22"/>
			<point x="-28" y="26" type="curve"/>
			<point x="-69" y="-150" type="line"/>
			<point x="-43" y="-159"/>
			<point x="-16" y="-165"/>
		</contour>
		<contour>
			<point x="163" y="543" type="curve" smooth="yes"/>
			<point x="238" y="543"/>
			<point x="290" y="590"/>
			<point x="290" y="655" type="curve" smooth="yes"/>
			<point x="290" y="719"/>
			<point x="238" y="767"/>
			<point x="163" y="767" type="curve" smooth="yes"/>
			<point x="88" y="767"/>
			<point x="36" y="719"/>
			<point x="36" y="655" type="curve" smooth="yes"/>
			<point x="36" y="590"/>
			<point x="88" y="543"/>
		</contour>
	</outline>
	<anchor name="aboveLC" x="164" y="764"/>
	<anchor name="belowLC" x="107" y="-242"/>
</glyph>
<glyph name="k" format="2">
	<unicode hex="006B"/>
	<advance width="626"/>
	<outline>
		<contour>
			<point x="39" y="0" type="line"/>
			<point x="276" y="0" type="line"/>
			<point x="276" y="114" type="line"/>
			<point x="297" y="134" type="line"/>
			<point x="364" y="0" type="line"/>
			<point x="626" y="0" type="line"/>
			<point x="435" y="293" type="line"/>
			<point x="625" y="511" type="line"/>
			<point x="364" y="511" type="line"/>
			<point x="281" y="402" type="line"/>
			<point x="276" y="402" type="line"/>
			<point x="276" y="683" type="line"/>
			<point x="39" y="683" type="line"/>
		</contour>
	</outline>
	<anchor name="aboveLC" x="162" y="730"/>
	<anchor name="belowLC" x="330" y="-22"/>
</glyph>
<glyph name="l" format="2">
	<unicode hex="006C"/>
	<advance width="332"/>
	<outline>
		<contour>
			<point x="246" y="-12" type="curve" smooth="yes"/>
			<point x="297" y="-12"/>
			<point x="336" y="-4"/>
			<point x="359" y="7" type="curve"/>
			<point x="332" y="183" type="line"/>
			<point x="325" y="181"/>
			<point x="321" y="181"/>
			<point x="314" y="181" type="curve" smooth="yes"/>
			<point x="302" y="181"/>
			<point x="282" y="191"/>
			<point x="282" y="232" type="curve" smooth="yes"/>
			<point x="282" y="683" type="line"/>
			<point x="39" y="683" type="line"/>
			<point x="39" y="238" type="line" smooth="yes"/>
			<point x="39" y="93"/>
			<point x="87" y="-12"/>
		</contour>
	</outline>
	<anchor name="aboveLC" x="160" y="730"/>
	<anchor name="belowLC" x="148" y="-22"/>
</glyph>
<glyph name="m" format="2">
	<unicode hex="006D"/>
	<advance width="899"/>
	<outline>
		<contour>
			<point x="39" y="0" type="line"/>
			<point x="282" y="0" type="line"/>
			<point x="282" y="309" type="line"/>
			<point x="293" y="316"/>
			<point x="304" y="318"/>
			<point x="311" y="318" type="curve" smooth="yes"/>
			<point x="323" y="318"/>
			<point x="329" y="320"/>
			<point x="329" y="277" type="curve" smooth="yes"/>
			<point x="329" y="0" type="line"/>
			<point x="572" y="0" type="line"/>
			<point x="572" y="309" type="line"/>
			<point x="583" y="316"/>
			<point x="595" y="318"/>
			<point x="601" y="318" type="curve" smooth="yes"/>
			<point x="613" y="318"/>
			<point x="619" y="320"/>
			<point x="619" y="277" type="curve" smooth="yes"/>
			<point x="619" y="0" type="line"/>
			<point x="862" y="0" type="line"/>
			<point x="862" y="308" type="line" smooth="yes"/>
			<point x="862" y="432"/>
			<point x="814" y="523"/>
			<point x="696" y="523" type="curve" smooth="yes"/>
			<point x="621" y="523"/>
			<point x="580" y="485"/>
			<point x="547" y="453" type="curve"/>
			<point x="514" y="501"/>
			<point x="469" y="523"/>
			<point x="406" y="523" type="curve" smooth="yes"/>
			<point x="330" y="523"/>
			<point x="295" y="491"/>
			<point x="257" y="458" type="curve"/>
			<point x="252" y="458" type="line"/>
			<point x="236" y="511" type="line"/>
			<point x="39" y="511" type="line"/>
		</contour>
	</outline>
	<anchor name="aboveLC" x="467" y="532"/>
	<anchor name="belowLC" x="459" y="-22"/>
</glyph>
<glyph name="n" format="2">
	<unicode hex="006E"/>
	<advance width="610"/>
	<outline>
		<contour>
			<point x="39" y="0" type="line"/>
			<point x="282" y="0" type="line"/>
			<point x="282" y="309" type="line"/>
			<point x="290" y="313"/>
			<point x="295" y="318"/>
			<point x="313" y="318" type="curve" smooth="yes"/>
			<point x="323" y="318"/>
			<point x="330" y="320"/>
			<point x="330" y="277" type="curve" smooth="yes"/>
			<point x="330" y="0" type="line"/>
			<point x="573" y="0" type="line"/>
			<point x="573" y="308" type="line" smooth="yes"/>
			<point x="573" y="432"/>
			<point x="527" y="523"/>
			<point x="411" y="523" type="curve" smooth="yes"/>
			<point x="342" y="523"/>
			<point x="292" y="491"/>
			<point x="257" y="459" type="curve"/>
			<point x="252" y="459" type="line"/>
			<point x="236" y="511" type="line"/>
			<point x="39" y="511" type="line"/>
		</contour>
	</outline>
	<anchor name="aboveLC" x="332" y="532"/>
	<anchor name="belowLC" x="310" y="-22"/>
</glyph>
<glyph name="o" format="2">
	<unicode hex="006F"/>
	<advance width="574"/>
	<outline>
		<contour>
			<point x="287" y="-12" type="curve" smooth="yes"/>
			<point x="422" y="-12"/>
			<point x="553" y="86"/>
			<point x="553" y="256" type="curve" smooth="yes"/>
			<point x="553" y="425"/>
			<point x="422" y="523"/>
			<point x="287" y="523" type="curve" smooth="yes"/>
			<point x="152" y="523"/>
			<point x="21" y="425"/>
			<point x="21" y="256" type="curve" smooth="yes"/>
			<point x="21" y="86"/>
			<point x="152" y="-12"/>
		</contour>
		<contour>
			<point x="287" y="181" type="curve" smooth="yes"/>
			<point x="260" y="181"/>
			<point x="269" y="208"/>
			<point x="269" y="256" type="curve" smooth="yes"/>
			<point x="269" y="304"/>
			<point x="260" y="330"/>
			<point x="287" y="330" type="curve" smooth="yes"/>
			<point x="314" y="330"/>
			<point x="305" y="304"/>
			<point x="305" y="256" type="curve" smooth="yes"/>
			<point x="305" y="208"/>
			<point x="314" y="181"/>
		</contour>
	</outline>
	<anchor name="aboveLC" x="287" y="532"/>
	<anchor name="belowLC" x="287" y="-22"/>
	<anchor name="hornLC" x="382" y="511"/>
	<anchor name="ogonekLC" x="345" y="0"/>
</glyph>
<glyph name="p" format="2">
	<unicode hex="0070"/>
	<advance width="600"/>
	<outline>
		<contour>
			<point x="39" y="-153" type="line"/>
			<point x="282" y="-153" type="line"/>
			<point x="282" y="-36" type="line"/>
			<point x="273" y="33" type="line"/>
			<point x="295" y="4"/>
			<point x="327" y="-12"/>
			<point x="367" y="-12" type="curve" smooth="yes"/>
			<point x="469" y="-12"/>
			<point x="573" y="87"/>
			<point x="573" y="264" type="curve" smooth="yes"/>
			<point x="573" y="421"/>
			<point x="490" y="523"/>
			<point x="378" y="523" type="curve" smooth="yes"/>
			<point x="333" y="523"/>
			<point x="288" y="505"/>
			<point x="257" y="473" type="curve"/>
			<point x="252" y="473" type="line"/>
			<point x="236" y="511" type="line"/>
			<point x="39" y="511" type="line"/>
		</contour>
		<contour>
			<point x="303" y="184" type="curve" smooth="yes"/>
			<point x="289" y="184"/>
			<point x="283" y="184"/>
			<point x="282" y="187" type="curve"/>
			<point x="282" y="315" type="line"/>
			<point x="284" y="327"/>
			<point x="287" y="327"/>
			<point x="301" y="327" type="curve" smooth="yes"/>
			<point x="311" y="327"/>
			<point x="325" y="323"/>
			<point x="325" y="261" type="curve" smooth="yes"/>
			<point x="325" y="184"/>
			<point x="311" y="184"/>
		</contour>
	</outline>
	<anchor name="aboveLC" x="332" y="532"/>
	<anchor name="belowLC" x="150" y="-218"/>
</glyph>
<glyph name="q" format="2">
	<unicode hex="0071"/>
	<advance width="600"/>
	<outline>
		<contour>
			<point x="318" y="-153" type="line"/>
			<point x="561" y="-153" type="line"/>
			<point x="561" y="511" type="line"/>
			<point x="373" y="511" type="line"/>
			<point x="354" y="458" type="line"/>
			<point x="349" y="458" type="line"/>
			<point x="315" y="507"/>
			<point x="276" y="523"/>
			<point x="226" y="523" type="curve" smooth="yes"/>
			<point x="131" y="523"/>
			<point x="27" y="425"/>
			<point x="27" y="256" type="curve" smooth="yes"/>
			<point x="27" y="94"/>
			<point x="108" y="-12"/>
			<point x="234" y="-12" type="curve" smooth="yes"/>
			<point x="261" y="-12"/>
			<point x="303" y="0"/>
			<point x="326" y="24" type="curve"/>
			<point x="318" y="-34" type="line"/>
		</contour>
		<contour>
			<point x="302" y="184" type="curve" smooth="yes"/>
			<point x="287" y="184"/>
			<point x="275" y="190"/>
			<point x="275" y="259" type="curve" smooth="yes"/>
			<point x="275" y="329"/>
			<point x="287" y="327"/>
			<point x="290" y="327" type="curve" smooth="yes"/>
			<point x="298" y="327"/>
			<point x="315" y="327"/>
			<point x="318" y="324" type="curve"/>
			<point x="318" y="196" type="line"/>
			<point x="318" y="181"/>
			<point x="313" y="184"/>
		</contour>
	</outline>
	<anchor name="aboveLC" x="314" y="532"/>
	<anchor name="belowLC" x="437" y="-218"/>
</glyph>
<glyph name="r" format="2">
	<unicode hex="0072"/>
	<advance width="474"/>
	<outline>
		<contour>
			<point x="39" y="0" type="line"/>
			<point x="282" y="0" type="line"/>
			<point x="282" y="251" type="line"/>
			<point x="299" y="297"/>
			<point x="339" y="313"/>
			<point x="371" y="313" type="curve" smooth="yes"/>
			<point x="395" y="313"/>
			<point x="415" y="308"/>
			<point x="434" y="305" type="curve"/>
			<point x="472" y="513" type="line"/>
			<point x="459" y="518"/>
			<point x="440" y="523"/>
			<point x="402" y="523" type="curve" smooth="yes"/>
			<point x="358" y="523"/>
			<point x="296" y="500"/>
			<point x="257" y="427" type="curve"/>
			<point x="252" y="427" type="line"/>
			<point x="236" y="511" type="line"/>
			<point x="39" y="511" type="line"/>
		</contour>
	</outline>
	<anchor name="aboveLC" x="291" y="532"/>
	<anchor name="belowLC" x="161" y="-22"/>
</glyph>
<glyph name="s" format="2">
	<unicode hex="0073"/>
	<advance width="478"/>
	<outline>
		<contour>
			<point x="214" y="-12" type="curve" smooth="yes"/>
			<point x="374" y="-12"/>
			<point x="457" y="65"/>
			<point x="457" y="171" type="curve" smooth="yes"/>
			<point x="457" y="259"/>
			<point x="397" y="304"/>
			<point x="345" y="323" type="curve" smooth="yes"/>
			<point x="299" y="339"/>
			<point x="262" y="343"/>
			<point x="262" y="353" type="curve" smooth="yes"/>
			<point x="262" y="360"/>
			<point x="266" y="348"/>
			<point x="270" y="348" type="curve" smooth="yes"/>
			<point x="292" y="348"/>
			<point x="327" y="334"/>
			<point x="365" y="307" type="curve"/>
			<point x="470" y="448" type="line"/>
			<point x="421" y="484"/>
			<point x="359" y="523"/>
			<point x="260" y="523" type="curve" smooth="yes"/>
			<point x="132" y="523"/>
			<point x="38" y="456"/>
			<point x="38" y="342" type="curve" smooth="yes"/>
			<point x="38" y="260"/>
			<point x="99" y="210"/>
			<point x="149" y="188" type="curve" smooth="yes"/>
			<point x="196" y="168"/>
			<point x="233" y="164"/>
			<point x="233" y="157" type="curve" smooth="yes"/>
			<point x="233" y="154"/>
			<point x="233" y="163"/>
			<point x="219" y="163" type="curve" smooth="yes"/>
			<point x="202" y="163"/>
			<point x="163" y="173"/>
			<point x="114" y="207" type="curve"/>
			<point x="10" y="60" type="line"/>
			<point x="67" y="15"/>
			<point x="154" y="-12"/>
		</contour>
	</outline>
	<anchor name="aboveLC" x="260" y="532"/>
	<anchor name="belowLC" x="246" y="-22"/>
	<anchor name="baseLC" x="246" y="0"/>
</glyph>
<glyph name="t" format="2">
	<unicode hex="0074"/>
	<advance width="449"/>
	<outline>
		<contour>
			<point x="287" y="-12" type="curve" smooth="yes"/>
			<point x="362" y="-12"/>
			<point x="402" y="-1"/>
			<point x="427" y="6" type="curve"/>
			<point x="393" y="179" type="line"/>
			<point x="384" y="177"/>
			<point x="373" y="175"/>
			<point x="358" y="175" type="curve" smooth="yes"/>
			<point x="345" y="175"/>
			<point x="310" y="180"/>
			<point x="310" y="232" type="curve" smooth="yes"/>
			<point x="310" y="324" type="line"/>
			<point x="410" y="324" type="line"/>
			<point x="410" y="511" type="line"/>
			<point x="310" y="511" type="line"/>
			<point x="310" y="636" type="line"/>
			<point x="110" y="636" type="line"/>
			<point x="82" y="511" type="line"/>
			<point x="6" y="504" type="line"/>
			<point x="6" y="324" type="line"/>
			<point x="67" y="324" type="line"/>
			<point x="67" y="225" type="line" smooth="yes"/>
			<point x="67" y="83"/>
			<point x="136" y="-12"/>
		</contour>
	</outline>
	<anchor name="aboveLC" x="202" y="681"/>
	<anchor name="belowLC" x="269" y="-22"/>
	<anchor name="baseLC" x="265" y="0"/>
</glyph>
<glyph name="u" format="2">
	<unicode hex="0075"/>
	<advance width="605"/>
	<outline>
		<contour>
			<point x="199" y="-12" type="curve" smooth="yes"/>
			<point x="268" y="-12"/>
			<point x="312" y="14"/>
			<point x="348" y="58" type="curve"/>
			<point x="353" y="58" type="line"/>
			<point x="369" y="0" type="line"/>
			<point x="566" y="0" type="line"/>
			<point x="566" y="511" type="line"/>
			<point x="323" y="511" type="line"/>
			<point x="323" y="207" type="line"/>
			<point x="320" y="195"/>
			<point x="315" y="193"/>
			<point x="297" y="193" type="curve" smooth="yes"/>
			<point x="287" y="193"/>
			<point x="280" y="191"/>
			<point x="280" y="234" type="curve" smooth="yes"/>
			<point x="280" y="511" type="line"/>
			<point x="37" y="511" type="line"/>
			<point x="37" y="203" type="line" smooth="yes"/>
			<point x="37" y="79"/>
			<point x="83" y="-12"/>
		</contour>
	</outline>
	<anchor name="aboveLC" x="304" y="532"/>
	<anchor name="belowLC" x="322" y="-22"/>
	<anchor name="hornLC" x="459" y="521"/>
	<anchor name="ogonekLC" x="496" y="0"/>
</glyph>
<glyph name="v" format="2">
	<unicode hex="0076"/>
	<advance width="605"/>
	<outline>
		<contour>
			<point x="167" y="0" type="line"/>
			<point x="446" y="0" type="line"/>
			<point x="593" y="511" type="line"/>
			<point x="363" y="511" type="line"/>
			<point x="339" y="339" type="line" smooth="yes"/>
			<point x="329" y="287"/>
			<point x="320" y="233"/>
			<point x="310" y="173" type="curve"/>
			<point x="306" y="173" type="line"/>
			<point x="296" y="233"/>
			<point x="287" y="287"/>
			<point x="277" y="339" type="curve" smooth="yes"/>
			<point x="253" y="511" type="line"/>
			<point x="12" y="511" type="line"/>
		</contour>
	</outline>
	<anchor name="aboveLC" x="305" y="532"/>
	<anchor name="belowLC" x="305" y="-22"/>
</glyph>
<glyph name="w" format="2">
	<unicode hex="0077"/>
	<advance width="861"/>
	<outline>
		<contour>
			<point x="132" y="0" type="line"/>
			<point x="407" y="0" type="line"/>
			<point x="414" y="106" type="line"/>
			<point x="418" y="152"/>
			<point x="421" y="198"/>
			<point x="427" y="258" type="curve"/>
			<point x="431" y="258" type="line"/>
			<point x="436" y="198"/>
			<point x="443" y="151"/>
			<point x="448" y="105" type="curve"/>
			<point x="457" y="0" type="line"/>
			<point x="736" y="0" type="line"/>
			<point x="837" y="511" type="line"/>
			<point x="616" y="511" type="line"/>
			<point x="604" y="357" type="line"/>
			<point x="598" y="304"/>
			<point x="598" y="249"/>
			<point x="592" y="192" type="curve"/>
			<point x="588" y="192" type="line"/>
			<point x="579" y="249"/>
			<point x="573" y="304"/>
			<point x="561" y="357" type="curve"/>
			<point x="535" y="511" type="line"/>
			<point x="337" y="511" type="line"/>
			<point x="314" y="357" type="line"/>
			<point x="302" y="307"/>
			<point x="296" y="249"/>
			<point x="290" y="192" type="curve"/>
			<point x="286" y="192" type="line"/>
			<point x="279" y="249"/>
			<point x="279" y="304"/>
			<point x="273" y="357" type="curve"/>
			<point x="262" y="511" type="line"/>
			<point x="24" y="511" type="line"/>
		</contour>
	</outline>
	<anchor name="aboveLC" x="432" y="532"/>
	<anchor name="belowLC" x="432" y="-22"/>
</glyph>
<glyph name="x" format="2">
	<unicode hex="0078"/>
	<advance width="614"/>
	<outline>
		<contour>
			<point x="14" y="0" type="line"/>
			<point x="265" y="0" type="line"/>
			<point x="263" y="36" type="line"/>
			<point x="270" y="64"/>
			<point x="278" y="93"/>
			<point x="285" y="121" type="curve"/>
			<point x="289" y="121" type="line"/>
			<point x="302" y="93"/>
			<point x="312" y="63"/>
			<point x="326" y="36" type="curve"/>
			<point x="341" y="0" type="line"/>
			<point x="600" y="0" type="line"/>
			<point x="457" y="236" type="line"/>
			<point x="595" y="511" type="line"/>
			<point x="344" y="511" type="line"/>
			<point x="348" y="470" type="line"/>
			<point x="344" y="441"/>
			<point x="334" y="409"/>
			<point x="329" y="380" type="curve"/>
			<point x="325" y="380" type="line"/>
			<point x="314" y="409"/>
			<point x="302" y="441"/>
			<point x="291" y="470" type="curve"/>
			<point x="278" y="511" type="line"/>
			<point x="19" y="511" type="line"/>
			<point x="157" y="265" type="line"/>
		</contour>
	</outline>
	<anchor name="aboveLC" x="307" y="532"/>
	<anchor name="belowLC" x="307" y="-22"/>
</glyph>
<glyph name="y" format="2">
	<unicode hex="0079"/>
	<advance width="601"/>
	<outline>
		<contour>
			<point x="165" y="-171" type="curve" smooth="yes"/>
			<point x="310" y="-171"/>
			<point x="367" y="-120"/>
			<point x="433" y="46" type="curve"/>
			<point x="589" y="511" type="line"/>
			<point x="359" y="511" type="line"/>
			<point x="338" y="380" type="line" smooth="yes"/>
			<point x="327" y="328"/>
			<point x="320" y="285"/>
			<point x="313" y="234" type="curve"/>
			<point x="309" y="234" type="line"/>
			<point x="300" y="288"/>
			<point x="295" y="331"/>
			<point x="282" y="380" type="curve" smooth="yes"/>
			<point x="253" y="511" type="line"/>
			<point x="12" y="511" type="line"/>
			<point x="198" y="33" type="line"/>
			<point x="196" y="22" type="line" smooth="yes"/>
			<point x="194" y="16"/>
			<point x="182" y="15"/>
			<point x="143" y="15" type="curve" smooth="yes"/>
			<point x="135" y="15"/>
			<point x="124" y="19"/>
			<point x="115" y="20" type="curve"/>
			<point x="74" y="-161" type="line"/>
			<point x="101" y="-167"/>
			<point x="122" y="-171"/>
		</contour>
	</outline>
	<anchor name="aboveLC" x="302" y="532"/>
	<anchor name="belowLC" x="268" y="-240"/>
</glyph>
<glyph name="z" format="2">
	<unicode hex="007A"/>
	<advance width="513"/>
	<outline>
		<contour>
			<point x="47" y="0" type="line"/>
			<point x="490" y="0" type="line"/>
			<point x="490" y="187" type="line"/>
			<point x="348" y="187" type="line"/>
			<point x="486" y="381" type="line"/>
			<point x="486" y="511" type="line"/>
			<point x="64" y="511" type="line"/>
			<point x="64" y="324" type="line"/>
			<point x="185" y="324" type="line"/>
			<point x="47" y="130" type="line"/>
		</contour>
	</outline>
	<anchor name="aboveLC" x="270" y="532"/>
	<anchor name="belowLC" x="271" y="-22"/>
</glyph>
<glyph name=".notdef" format="2">
	<advance width="744"/>
	<outline>
		<contour>
			<point x="66" y="0" type="line"/>
			<point x="678" y="0" type="line"/>
			<point x="678" y="660" type="line"/>
			<point x="66" y="660" type="line"/>
		</contour>
		<contour>
			<point x="360" y="140" type="line"/>
			<point x="348" y="136" type="line"/>
			<point x="370" y="227" type="line"/>
			<point x="374" y="227" type="line"/>
			<point x="397" y="136" type="line"/>
			<point x="386" y="140" type="line"/>
		</contour>
		<contour>
			<point x="370" y="453" type="line"/>
			<point x="338" y="551" type="line"/>
			<point x="358" y="521" type="line"/>
			<point x="387" y="521" type="line"/>
			<point x="407" y="551" type="line"/>
			<point x="374" y="453" type="line"/>
		</contour>
		<contour>
			<point x="215" y="221" type="line"/>
			<point x="215" y="457" type="line"/>
			<point x="261" y="340" type="line"/>
		</contour>
		<contour>
			<point x="530" y="221" type="line"/>
			<point x="483" y="340" type="line"/>
			<point x="530" y="457" type="line"/>
		</contour>
	</outline>
</glyph>
